# xmcd
#
# Track frame offsets:
#	150
#	21322
#	45708
#	65911
#	84524
#	96411
#	117064
#	143159
#	147054
#	169931
#	194802
#	215806
#	232792
#	269669
#	281443
#	304969
#
# Disc length: 4326 seconds
#
# Revision: 1
# Processed by: cddbd v1.5.1PL0 Copyright (c) Steve Scherf et al.
# Submitted via: audiograbber 1.81.03
#
DISCID=fa10e410
DTITLE=The Johnny Hooper Band - Live at the Watermill
DYEAR=2000
DGENRE=Blues
TTITLE0=Night Train
TTITLE1=Jersey Girl (Live at the Watermill)
TTITLE2=Silhouette
TTITLE3=Tuxedo Junction
TTITLE4=Tequila
TTITLE5=Missing you
TTITLE6=Green Onions
TTITLE7=Band Intro
TTITLE8=Misty
TTITLE9=Wave
TTITLE10=Soul Serenade
TTITLE11=Somewhere
TTITLE12=Summertime
TTITLE13=Birth of the Blues
TTITLE14=Rudy's Rock
TTITLE15=Knock on Wood
EXTD=
EXTT0=
EXTT1=
EXTT2=
EXTT3=
EXTT4=
EXTT5=
EXTT6=
EXTT7=
EXTT8=
EXTT9=
EXTT10=
EXTT11=
EXTT12=
EXTT13=
EXTT14=
EXTT15=
PLAYORDER=
